<?xml version="1.0"?>
<svg xmlns="http://www.w3.org/2000/svg" xmlns:xlink="http://www.w3.org/1999/xlink" xmlns:svgjs="http://svgjs.com/svgjs" version="1.1" width="512" height="512" x="0" y="0" viewBox="0 0 512 512" style="enable-background:new 0 0 512 512" xml:space="preserve" class=""><g><g xmlns="http://www.w3.org/2000/svg"><path d="m452 116h-120c-33.084 0-60 26.916-60 60v120c0 33.084 26.916 60 60 60h120c33.084 0 60-26.916 60-60v-120c0-33.084-26.916-60-60-60zm20 180c0 11.028-8.972 20-20 20h-120c-11.028 0-20-8.972-20-20v-120c0-11.028 8.972-20 20-20h120c11.028 0 20 8.972 20 20z" fill="#ffffff" data-original="#000000" style="" class=""/><path d="m120 240c66.168 0 120-53.832 120-120s-53.832-120-120-120-120 53.832-120 120 53.832 120 120 120zm0-200c44.112 0 80 35.888 80 80s-35.888 80-80 80-80-35.888-80-80 35.888-80 80-80z" fill="#ffffff" data-original="#000000" style="" class=""/><path d="m20.676 512h310.647l-155.323-258.873zm70.648-40 84.676-141.127 84.676 141.127z" fill="#ffffff" data-original="#000000" style="" class=""/></g></g></svg>
