<svg xmlns="http://www.w3.org/2000/svg" width="53.429" height="45.257" viewBox="0 0 53.429 45.257">
  <path id="Trazado_3" data-name="Trazado 3" d="M53.429,53.8a14.533,14.533,0,0,0-4.385-10.449.783.783,0,1,0-1.1,1.117A13.077,13.077,0,0,1,42.82,66.237L35.549,50.413a2.174,2.174,0,0,0-3.951,0L27.23,59.918A13.08,13.08,0,0,1,45.042,42.312a.783.783,0,1,0,.75-1.374,14.645,14.645,0,0,0-20.4,6.942L15.189,41.986a.782.782,0,0,0-.783,0L.391,50.077a.772.772,0,0,0-.079.053l-.019.015q-.029.023-.055.048l-.016.016a.775.775,0,0,0-.113.148l-.01.018q-.018.032-.032.065l-.01.023a.8.8,0,0,0-.028.082v0a.8.8,0,0,0-.018.09c0,.008,0,.016,0,.024Q0,50.7,0,50.742s0,.009,0,.013V66.938a.783.783,0,0,0,.391.678l14.015,8.091a.8.8,0,0,0,.093.046.778.778,0,0,0,.3.059.786.786,0,0,0,.1-.007l.02,0A.79.79,0,0,0,15,75.786l.036-.012c.02-.006.041-.012.061-.021l.028-.013c.022-.01.044-.02.065-.032h0L21.7,71.945l-3.073,6.688a.783.783,0,0,0-.071.327c0,1.636,1.628,3.035,4.707,4.046a34.382,34.382,0,0,0,10.307,1.407A34.383,34.383,0,0,0,43.88,83.006C46.959,82,48.587,80.6,48.587,78.96a.781.781,0,0,0-.071-.327l-1.157-2.517a.783.783,0,0,0-1.422.653L47.009,79.1c-.287,1.61-5.345,3.744-13.436,3.744S20.424,80.713,20.137,79.1L33.02,51.066a.609.609,0,0,1,1.106,0l7.555,16.443h0l2.729,5.94a.783.783,0,0,0,1.422-.653L43.478,67.67A14.664,14.664,0,0,0,53.429,53.8ZM14.8,57.942,7.2,53.557a.783.783,0,0,0-.783,1.356l7.6,4.386V73.673L1.565,66.486V52.11l1.92,1.109a.783.783,0,0,0,.783-1.356l-1.92-1.109L14.8,43.567l10.036,5.794a14.545,14.545,0,0,0-.63,3.15Zm8.037,11.543L15.58,73.673V59.3l8.576-4.952a14.55,14.55,0,0,0,2.276,7.307Z" transform="translate(0 -39.156)" fill="#266dd3"/>
</svg>
